[Header]
FileType HTR
DataType HTRS
FileVersion 1
NumSegments 64
NumFrames 4
DataFrameRate 30
EulerRotationOrder ZYX
CalibrationUnits mm
RotationUnits Degrees
GlobalAxisofGravity Y
BoneLengthAxis Y
ScaleFactor 1.0
[SegmentNames&Hierarchy]
Hips	GLOBAL
Spine	Hips
Spine1	Spine
Spine2	Spine1
Neck	Spine2
Head	Neck
LeftEye	Head
RightEye	Head
LeftShoulder	Spine2
LeftArm	LeftShoulder
LeftForeArm	LeftArm
LeftHand	LeftForeArm
LeftHandThumb1	LeftHand
LeftHandThumb2	LeftHandThumb1
LeftHandThumb3	LeftHandThumb2
LeftHandThumb4	LeftHandThumb3
LeftHandIndex1	LeftHand
LeftHandIndex2	LeftHandIndex1
LeftHandIndex3	LeftHandIndex2
LeftHandIndex4	LeftHandIndex3
LeftHandMiddle1	LeftHand
LeftHandMiddle2	LeftHandMiddle1
LeftHandMiddle3	LeftHandMiddle2
LeftHandMiddle4	LeftHandMiddle3
LeftHandRing1	LeftHand
LeftHandRing2	LeftHandRing1
LeftHandRing3	LeftHandRing2
LeftHandRing4	LeftHandRing3
LeftHandPinky1	LeftHand
LeftHandPinky2	LeftHandPinky1
LeftHandPinky3	LeftHandPinky2
LeftHandPinky4	LeftHandPinky3
RightShoulder	Spine2
RightArm	RightShoulder
RightForeArm	RightArm
RightHand	RightForeArm
RightHandPinky1	RightHand
RightHandPinky2	RightHandPinky1
RightHandPinky3	RightHandPinky2
RightHandPinky4	RightHandPinky3
RightHandRing1	RightHand
RightHandRing2	RightHandRing1
RightHandRing3	RightHandRing2
RightHandRing4	RightHandRing3
RightHandMiddle1	RightHand
RightHandMiddle2	RightHandMiddle1
RightHandMiddle3	RightHandMiddle2
RightHandMiddle4	RightHandMiddle3
RightHandIndex1	RightHand
RightHandIndex2	RightHandIndex1
RightHandIndex3	RightHandIndex2
RightHandIndex4	RightHandIndex3
RightHandThumb1	RightHand
RightHandThumb2	RightHandThumb1
RightHandThumb3	RightHandThumb2
RightHandThumb4	RightHandThumb3
LeftUpLeg	Hips
LeftLeg	LeftUpLeg
LeftFoot	LeftLeg
LeftToeBase	LeftFoot
RightUpLeg	Hips
RightLeg	RightUpLeg
RightFoot	RightLeg
RightToeBase	RightFoot
[BasePosition]
Hips	0	0	0	0	0	0	1
Spine	0	0	0	0	0	0	1
Spine1	0	0	0	0	0	0	1
Spine2	0	0	0	0	0	0	1
Neck	0	0	0	0	0	0	1
Head	0	0	0	0	0	0	1
LeftEye	0	0	0	0	0	0	1
RightEye	0	0	0	0	0	0	1
LeftShoulder	0	0	0	0	0	0	1
LeftArm	0	0	0	0	0	0	1
LeftForeArm	0	0	0	0	0	0	1
LeftHand	0	0	0	0	0	0	1
LeftHandThumb1	0	0	0	0	0	0	1
LeftHandThumb2	0	0	0	0	0	0	1
LeftHandThumb3	0	0	0	0	0	0	1
LeftHandThumb4	0	0	0	0	0	0	1
LeftHandIndex1	0	0	0	0	0	0	1
LeftHandIndex2	0	0	0	0	0	0	1
LeftHandIndex3	0	0	0	0	0	0	1
LeftHandIndex4	0	0	0	0	0	0	1
LeftHandMiddle1	0	0	0	0	0	0	1
LeftHandMiddle2	0	0	0	0	0	0	1
LeftHandMiddle3	0	0	0	0	0	0	1
LeftHandMiddle4	0	0	0	0	0	0	1
LeftHandRing1	0	0	0	0	0	0	1
LeftHandRing2	0	0	0	0	0	0	1
LeftHandRing3	0	0	0	0	0	0	1
LeftHandRing4	0	0	0	0	0	0	1
LeftHandPinky1	0	0	0	0	0	0	1
LeftHandPinky2	0	0	0	0	0	0	1
LeftHandPinky3	0	0	0	0	0	0	1
LeftHandPinky4	0	0	0	0	0	0	1
RightShoulder	0	0	0	0	0	0	1
RightArm	0	0	0	0	0	0	1
RightForeArm	0	0	0	0	0	0	1
RightHand	0	0	0	0	0	0	1
RightHandPinky1	0	0	0	0	0	0	1
RightHandPinky2	0	0	0	0	0	0	1
RightHandPinky3	0	0	0	0	0	0	1
RightHandPinky4	0	0	0	0	0	0	1
RightHandRing1	0	0	0	0	0	0	1
RightHandRing2	0	0	0	0	0	0	1
RightHandRing3	0	0	0	0	0	0	1
RightHandRing4	0	0	0	0	0	0	1
RightHandMiddle1	0	0	0	0	0	0	1
RightHandMiddle2	0	0	0	0	0	0	1
RightHandMiddle3	0	0	0	0	0	0	1
RightHandMiddle4	0	0	0	0	0	0	1
RightHandIndex1	0	0	0	0	0	0	1
RightHandIndex2	0	0	0	0	0	0	1
RightHandIndex3	0	0	0	0	0	0	1
RightHandIndex4	0	0	0	0	0	0	1
RightHandThumb1	0	0	0	0	0	0	1
RightHandThumb2	0	0	0	0	0	0	1
RightHandThumb3	0	0	0	0	0	0	1
RightHandThumb4	0	0	0	0	0	0	1
LeftUpLeg	0	0	0	0	0	0	1
LeftLeg	0	0	0	0	0	0	1
LeftFoot	0	0	0	0	0	0	1
LeftToeBase	0	0	0	0	0	0	1
RightUpLeg	0	0	0	0	0	0	1
RightLeg	0	0	0	0	0	0	1
RightFoot	0	0	0	0	0	0	1
RightToeBase	0	0	0	0	0	0	1
[Hips]
1  	1.439111829	1033.994629	14.22792435	-3.418059826	-5.443252563	-3.433296442	1.0
2  	1.936886907	1033.789795	13.24303436	-3.481617928	-5.546044827	-3.423511982	1.0
3  	2.437518597	1033.578125	12.25333595	-3.541186094	-5.651277542	-3.413780451	1.0
4  	2.93243742	1033.380005	11.27325535	-3.608734369	-5.751629829	-3.4039433	1.0
[Spine]
1  	0	101.8159943	1.315000057	3.367920399	1.387300253	2.820948839	1.0
2  	0	101.8159943	1.315000057	3.395589113	1.385565042	2.824698925	1.0
3  	0	101.8159943	1.315000057	3.423870564	1.383714914	2.828251839	1.0
4  	0	101.8159943	1.315000057	3.450926304	1.382094502	2.832199097	1.0
[Spine1]
1  	0	100.8349991	-10.00800037	1.16080153	0.3124285638	1.559419632	1.0
2  	0	100.8349991	-10.00800037	1.17747128	0.3114492595	1.575635552	1.0
3  	0	100.8349991	-10.00800037	1.195340395	0.3103119731	1.591977358	1.0
4  	0	100.8349991	-10.00800037	1.210810542	0.3094906211	1.608067393	1.0
[Spine2]
1  	0	91	-13.73399925	1.135543227	0.334744066	1.562794328	1.0
2  	0	91	-13.73399925	1.151902676	0.3337747455	1.579060793	1.0
3  	0	91	-13.73399925	1.169463873	0.3326446712	1.595438838	1.0
4  	0	91	-13.73399925	1.184621811	0.3318361044	1.611593962	1.0
[Neck]
1  	0	166.7169952	-25.16200066	5.62552166	-0.1231446564	0.4446267188	1.0
2  	0	166.7169952	-25.16200066	5.720558167	-0.08438317478	0.4217176437	1.0
3  	0	166.7169952	-25.16200066	5.811111927	-0.04750145227	0.4006134868	1.0
4  	0	166.7169952	-25.16200066	5.910630703	-0.00686022453	0.3758994639	1.0
[Head]
1  	0	96.17900085	16.84999847	-7.567354202	1.353295803	-0.2587914765	1.0
2  	0	96.17900085	16.84999847	-7.089025021	1.576102853	-0.398241818	1.0
3  	0	96.17900085	16.84999847	-6.641633034	1.789864779	-0.5355051756	1.0
4  	0	96.17900085	16.84999847	-6.132367134	2.021716833	-0.6771425009	1.0
[LeftEye]
1  	30.6760006	64.09500122	92.83599854	0	0	0	1.0
2  	30.6760006	64.09500122	92.83599854	0	0	0	1.0
3  	30.6760006	64.09500122	92.83599854	0	0	0	1.0
4  	30.6760006	64.09500122	92.83599854	0	0	0	1.0
[RightEye]
1  	-30.6760006	64.09500122	92.83499908	0	0	0	1.0
2  	-30.6760006	64.09500122	92.83499908	0	0	0	1.0
3  	-30.6760006	64.09500122	92.83499908	0	0	0	1.0
4  	-30.6760006	64.09500122	92.83499908	0	0	0	1.0
[LeftShoulder]
1  	45.70400238	109.4599991	-26.28000069	4.903890133	-16.79105377	-13.20462322	1.0
2  	45.70400238	109.4599991	-26.28000069	4.888537407	-16.79614067	-13.11262417	1.0
3  	45.70400238	109.4599991	-26.28000069	4.87480402	-16.80624771	-13.02305794	1.0
4  	45.70400238	109.4599991	-26.28000069	4.857831955	-16.80631638	-12.92862797	1.0
[LeftArm]
1  	105.923996	-5.24600029	-22.32099915	20.1280365	-3.088276386	-71.00372314	1.0
2  	105.923996	-5.24600029	-22.32099915	20.19177628	-3.033719301	-71.06332397	1.0
3  	105.923996	-5.24600029	-22.32099915	20.25048256	-2.982602358	-71.12261963	1.0
4  	105.923996	-5.24600029	-22.32099915	20.31925392	-2.924604893	-71.18254089	1.0
[LeftForeArm]
1  	278.414978	-0.0009999999311	0	-7.228711183e-06	-1.459356785	-0.0001883379882	1.0
2  	278.414978	-0.0009999999311	0	-4.460370292e-06	-1.492105246	-0.0001940728835	1.0
3  	278.414978	-0.0009999999311	0	-1.529472456e-06	-1.521298289	-0.0001997671498	1.0
4  	278.414978	-0.0009999999311	0	1.076311037e-06	-1.557602048	-0.0002055426594	1.0
[LeftHand]
1  	283.2879944	0	0	-32.95536423	-4.523312569	-4.439661026	1.0
2  	283.2879944	0	0	-33.0322113	-4.53115797	-4.451213837	1.0
3  	283.2879944	0	0	-33.10526657	-4.540425301	-4.4585495	1.0
4  	283.2879944	0	0	-33.18590927	-4.546848774	-4.474318981	1.0
[LeftHandThumb1]
1  	24.6609993	-15.75	26.8239994	-0.4889853001	2.20138979	4.818540573	1.0
2  	24.6609993	-15.75	26.8239994	-0.6553750634	1.888669968	4.737084866	1.0
3  	24.6609993	-15.75	26.8239994	-0.8263127804	1.585540533	4.663905144	1.0
4  	24.6609993	-15.75	26.8239994	-0.9881545901	1.263230324	4.57417345	1.0
[LeftHandThumb2]
1  	32.29800034	-18.64699936	18.64699936	19.88784409	19.96264839	23.26732826	1.0
2  	32.29800034	-18.64699936	18.64699936	19.89062309	19.9983387	23.19575691	1.0
3  	32.29800034	-18.64699936	18.64699936	19.89348602	20.03507423	23.12210464	1.0
4  	32.29800034	-18.64699936	18.64699936	19.89618111	20.06971931	23.05261612	1.0
[LeftHandThumb3]
1  	26.52600098	-15.31499958	15.31499958	-13.14535713	5.551740646	7.967935085	1.0
2  	26.52600098	-15.31499958	15.31499958	-13.10851192	5.47851181	7.901097298	1.0
3  	26.52600098	-15.31499958	15.31499958	-13.07180786	5.405227661	7.835361481	1.0
4  	26.52600098	-15.31499958	15.31499958	-13.03482342	5.332054138	7.767422199	1.0
[LeftHandThumb4]
1  	19.54599953	-11.28499985	11.28499985	0	0	0	1.0
2  	19.54599953	-11.28499985	11.28499985	0	0	0	1.0
3  	19.54599953	-11.28499985	11.28499985	0	0	0	1.0
4  	19.54599953	-11.28499985	11.28499985	0	0	0	1.0
[LeftHandIndex1]
1  	91.09299469	-5.170999527	22.60099792	0.1440422088	-0.9618960619	-7.594218254	1.0
2  	91.09299469	-5.170999527	22.60099792	0.1467815936	-1.047590017	-7.33334446	1.0
3  	91.09299469	-5.170999527	22.60099792	0.1492229253	-1.130303979	-7.085532188	1.0
4  	91.09299469	-5.170999527	22.60099792	0.152260378	-1.218977451	-6.81159687	1.0
[LeftHandIndex2]
1  	36.76399994	0	0	-0.2666983604	1.745173693	-17.37647247	1.0
2  	36.76399994	0	0	-0.2661807239	1.743514538	-17.35942078	1.0
3  	36.76399994	0	0	-0.2656742334	1.741891384	-17.34273911	1.0
4  	36.76399994	0	0	-0.2651454806	1.740196466	-17.32531738	1.0
[LeftHandIndex3]
1  	28.83100128	0	0	-0.05743128806	0.8173362613	-8.038388252	1.0
2  	28.83100128	0	0	-0.0571850352	0.8155907989	-8.0210886	1.0
3  	28.83100128	0	0	-0.05694399029	0.813882947	-8.004158974	1.0
4  	28.83100128	0	0	-0.0566925332	0.812099874	-7.986488342	1.0
[LeftHandIndex4]
1  	23.92700005	0	0	0	0	0	1.0
2  	23.92700005	0	0	0	0	0	1.0
3  	23.92700005	0	0	0	0	0	1.0
4  	23.92700005	0	0	0	0	0	1.0
[LeftHandMiddle1]
1  	95.33399963	0	0	-0.7942935228	2.538621187	-15.71738815	1.0
2  	95.33399963	0	0	-0.7776513696	2.493216991	-15.46929836	1.0
3  	95.33399963	0	0	-0.7619754076	2.448655128	-15.23620796	1.0
4  	95.33399963	0	0	-0.7443670034	2.402408838	-14.97311687	1.0
[LeftHandMiddle2]
1  	36.98199844	0	0	-0.2676593363	1.74823153	-17.40786743	1.0
2  	36.98199844	0	0	-0.2676635981	1.748243809	-17.40800095	1.0
3  	36.98199844	0	0	-0.267670542	1.74826479	-17.4082222	1.0
4  	36.98199844	0	0	-0.2676721215	1.748268366	-17.40826607	1.0
[LeftHandMiddle3]
1  	29.50900078	0	0	-0.2992381155	1.845880747	-18.41482162	1.0
2  	29.50900078	0	0	-0.2992376983	1.845880389	-18.41482925	1.0
3  	29.50900078	0	0	-0.2992372811	1.845880032	-18.41483688	1.0
4  	29.50900078	0	0	-0.2992369235	1.845879793	-18.41484261	1.0
[LeftHandMiddle4]
1  	28.3390007	0	0	0	0	0	1.0
2  	28.3390007	0	0	0	0	0	1.0
3  	28.3390007	0	0	0	0	0	1.0
4  	28.3390007	0	0	0	0	0	1.0
[LeftHandRing1]
1  	91.04499817	-0.4390000105	-18.65100098	-1.184960127	3.436641693	-21.16633224	1.0
2  	91.04499817	-0.4390000105	-18.65100098	-1.154158831	3.327377796	-20.75381088	1.0
3  	91.04499817	-0.4390000105	-18.65100098	-1.123335838	3.218562126	-20.34118271	1.0
4  	91.04499817	-0.4390000105	-18.65100098	-1.092556238	3.108850002	-19.92877007	1.0
[LeftHandRing2]
1  	31.54000092	0	0	-0.3849342763	2.085561037	-20.91277313	1.0
2  	31.54000092	0	0	-0.3824443221	2.079003572	-20.84393311	1.0
3  	31.54000092	0	0	-0.3799371719	2.072401762	-20.77462578	1.0
4  	31.54000092	0	0	-0.3774644136	2.065888643	-20.70625305	1.0
[LeftHandRing3]
1  	29.37700081	0	0	-0.2818076015	1.792708278	-17.86576462	1.0
2  	29.37700081	0	0	-0.2797945738	1.786420107	-17.80099869	1.0
3  	29.37700081	0	0	-0.2777657807	1.780083656	-17.73573685	1.0
4  	29.37700081	0	0	-0.2757684588	1.773843527	-17.67146683	1.0
[LeftHandRing4]
1  	26.47500038	0	0	0	0	0	1.0
2  	26.47500038	0	0	0	0	0	1.0
3  	26.47500038	0	0	0	0	0	1.0
4  	26.47500038	0	0	0	0	0	1.0
[LeftHandPinky1]
1  	80.77799988	-4.887000084	-38.06099701	-1.708252907	5.355367184	-27.1653862	1.0
2  	80.77799988	-4.887000084	-38.06099701	-1.727111101	5.241024971	-27.10378265	1.0
3  	80.77799988	-4.887000084	-38.06099701	-1.746093273	5.127566338	-27.04546547	1.0
4  	80.77799988	-4.887000084	-38.06099701	-1.764827371	5.012341499	-26.98057556	1.0
[LeftHandPinky2]
1  	36	0	0	-0.2676210701	1.748108506	-17.40662766	1.0
2  	36	0	0	-0.2716718614	1.760826468	-17.53759003	1.0
3  	36	0	0	-0.27572456	1.773556352	-17.66866684	1.0
4  	36	0	0	-0.2797734141	1.786262512	-17.79951286	1.0
[LeftHandPinky3]
1  	21.14200211	0	0	-0.2408545017	1.660356522	-16.50660706	1.0
2  	21.14200211	0	0	-0.2447044551	1.673138142	-16.63755417	1.0
3  	21.14200211	0	0	-0.2485560775	1.685931683	-16.76862144	1.0
4  	21.14200211	0	0	-0.2524043918	1.698701382	-16.89945602	1.0
[LeftHandPinky4]
1  	19.75699997	0	0	0	0	0	1.0
2  	19.75699997	0	0	0	0	0	1.0
3  	19.75699997	0	0	0	0	0	1.0
4  	19.75699997	0	0	0	0	0	1.0
[RightShoulder]
1  	-45.70000076	109.4620056	-26.28000069	5.186189175	14.51017475	15.52902031	1.0
2  	-45.70000076	109.4620056	-26.28000069	5.20693779	14.59974575	15.50453377	1.0
3  	-45.70000076	109.4620056	-26.28000069	5.227503777	14.68919563	15.47853661	1.0
4  	-45.70000076	109.4620056	-26.28000069	5.248435497	14.7788887	15.45556068	1.0
[RightArm]
1  	-105.9280014	-5.248000145	-22.32099915	30.23855019	2.220938444	62.6253624	1.0
2  	-105.9280014	-5.248000145	-22.32099915	30.64891434	2.259121418	62.51326752	1.0
3  	-105.9280014	-5.248000145	-22.32099915	31.0457077	2.300561905	62.40836716	1.0
4  	-105.9280014	-5.248000145	-22.32099915	31.46964645	2.335487366	62.28907776	1.0
[RightForeArm]
1  	-278.414978	0	0	-3.272211188e-06	6.693523884	-8.542665455e-06	1.0
2  	-278.414978	0	0	-1.6802353e-06	6.830997467	-5.612188033e-06	1.0
3  	-278.414978	0	0	4.526532393e-08	6.962119102	-2.083387244e-06	1.0
4  	-278.414978	0	0	1.503716248e-06	7.105944157	2.487675772e-07	1.0
[RightHand]
1  	-283.2879944	0	0.0009999999311	-20.07677841	1.855679393	6.545358658	1.0
2  	-283.2879944	0	0.0009999999311	-20.01718521	1.850623131	6.561672688	1.0
3  	-283.2879944	0	0.0009999999311	-19.96315575	1.844920874	6.571022987	1.0
4  	-283.2879944	0	0.0009999999311	-19.897995	1.840510607	6.59430027	1.0
[RightHandPinky1]
1  	-80.76699829	-4.885000229	-38.06000137	-1.501212478	-4.69611311	26.50582886	1.0
2  	-80.76699829	-4.885000229	-38.06000137	-1.406174421	-4.576656342	25.05842209	1.0
3  	-80.76699829	-4.885000229	-38.06000137	-1.311617732	-4.460812092	23.62442207	1.0
4  	-80.76699829	-4.885000229	-38.06000137	-1.216098189	-4.337741375	22.16360855	1.0
[RightHandPinky2]
1  	-36	0	0.0009999999311	-0.2127659768	-1.388864875	17.43785286	1.0
2  	-36	0	0.0009999999311	-0.2109800428	-1.383131027	17.36363029	1.0
3  	-36	0	0.0009999999311	-0.2092631757	-1.377625465	17.29235077	1.0
4  	-36	0	0.0009999999311	-0.2074081898	-1.371663451	17.21518707	1.0
[RightHandPinky3]
1  	-21.14200211	0	0	-0.1919134557	-1.32060349	16.5364151	1.0
2  	-21.14200211	0	0	-0.1901967227	-1.314772487	16.46134567	1.0
3  	-21.14200211	0	0	-0.1885466278	-1.309174895	16.3892746	1.0
4  	-21.14200211	0	0	-0.1867632568	-1.30311048	16.31120491	1.0
[RightHandPinky4]
1  	-19.75699997	0	0	0	0	0	1.0
2  	-19.75699997	0	0	0	0	0	1.0
3  	-19.75699997	0	0	0	0	0	1.0
4  	-19.75699997	0	0	0	0	0	1.0
[RightHandRing1]
1  	-91.03599548	-0.4390000105	-18.65100098	-1.045237541	-2.883115292	20.47790337	1.0
2  	-91.03599548	-0.4390000105	-18.65100098	-0.9724416733	-2.778098106	19.33070183	1.0
3  	-91.03599548	-0.4390000105	-18.65100098	-0.8999785781	-2.677191973	18.19068909	1.0
4  	-91.03599548	-0.4390000105	-18.65100098	-0.8268499374	-2.568063974	17.03629684	1.0
[RightHandRing2]
1  	-31.54000092	0	0	-0.3066938519	-1.658752441	20.94925117	1.0
2  	-31.54000092	0	0	-0.2998833656	-1.640536785	20.70893288	1.0
3  	-31.54000092	0	0	-0.2929335833	-1.621951103	20.46372604	1.0
4  	-31.54000092	0	0	-0.286262393	-1.604105592	20.22829819	1.0
[RightHandRing3]
1  	-29.37700081	0	0	-0.2245365828	-1.42586112	17.89772224	1.0
2  	-29.37700081	0	0	-0.2187128961	-1.40732193	17.65768814	1.0
3  	-29.37700081	0	0	-0.2127693146	-1.388403177	17.41274071	1.0
4  	-29.37700081	0	0	-0.2070655525	-1.370243669	17.17762375	1.0
[RightHandRing4]
1  	-26.47500038	0	0	0	0	0	1.0
2  	-26.47500038	0	0	0	0	0	1.0
3  	-26.47500038	0	0	0	0	0	1.0
4  	-26.47500038	0	0	0	0	0	1.0
[RightHandMiddle1]
1  	-95.32500458	0	0	-0.7017201781	-2.087753773	15.01529121	1.0
2  	-95.32500458	0	0	-0.6321912408	-1.862877727	13.79659843	1.0
3  	-95.32500458	0	0	-0.5632654428	-1.641022205	12.59181786	1.0
4  	-95.32500458	0	0	-0.4931334555	-1.413125277	11.35921192	1.0
[RightHandMiddle2]
1  	-36.98199844	0	0	-0.2132273763	-1.390365124	17.43748856	1.0
2  	-36.98199844	0	0	-0.211893782	-1.386089087	17.38217163	1.0
3  	-36.98199844	0	0	-0.210573554	-1.381856918	17.32742119	1.0
4  	-36.98199844	0	0	-0.2092266083	-1.377537012	17.27153587	1.0
[RightHandMiddle3]
1  	-29.50900078	0	0	-0.2384101897	-1.470121622	18.44693375	1.0
2  	-29.50900078	0	0	-0.2370265573	-1.46594882	18.39266396	1.0
3  	-29.50900078	0	0	-0.2356564105	-1.461817741	18.33894157	1.0
4  	-29.50900078	0	0	-0.2342593074	-1.457602978	18.28412628	1.0
[RightHandMiddle4]
1  	-28.3390007	0	0.0009999999311	0	0	0	1.0
2  	-28.3390007	0	0.0009999999311	0	0	0	1.0
3  	-28.3390007	0	0.0009999999311	0	0	0	1.0
4  	-28.3390007	0	0.0009999999311	0	0	0	1.0
[RightHandIndex1]
1  	-91.08300018	-5.167999744	22.60099792	0.1873315722	1.251948833	6.825564861	1.0
2  	-91.08300018	-5.167999744	22.60099792	0.2165823281	1.632980108	5.951342106	1.0
3  	-91.08300018	-5.167999744	22.60099792	0.2454936951	2.005831242	5.091419697	1.0
4  	-91.08300018	-5.167999744	22.60099792	0.2750838101	2.395042419	4.202896118	1.0
[RightHandIndex2]
1  	-36.76399994	0	0	-0.2125062793	-1.388063073	17.40764427	1.0
2  	-36.76399994	0	0	-0.2130824327	-1.389898062	17.43141556	1.0
3  	-36.76399994	0	0	-0.2137006521	-1.391866922	17.45692062	1.0
4  	-36.76399994	0	0	-0.2142347693	-1.393568158	17.47895813	1.0
[RightHandIndex3]
1  	-28.83100128	0	0	-0.04576767609	-0.6501118541	8.053530693	1.0
2  	-28.83100128	0	0	-0.04603849351	-0.652017951	8.077301025	1.0
3  	-28.83100128	0	0	-0.04632917792	-0.654063344	8.102807999	1.0
4  	-28.83100128	0	0	-0.0465801321	-0.6558301449	8.12484169	1.0
[RightHandIndex4]
1  	-23.92700005	0	0	0	0	0	1.0
2  	-23.92700005	0	0	0	0	0	1.0
3  	-23.92700005	0	0	0	0	0	1.0
4  	-23.92700005	0	0	0	0	0	1.0
[RightHandThumb1]
1  	-24.64799881	-15.72700024	26.82600021	-1.658462763	-0.2891335785	-4.22132349	1.0
2  	-24.64799881	-15.72700024	26.82600021	-1.547143698	-0.04095423967	-4.373047829	1.0
3  	-24.64799881	-15.72700024	26.82600021	-1.441984177	0.1998474896	-4.523983955	1.0
4  	-24.64799881	-15.72700024	26.82600021	-1.324505329	0.4554044604	-4.676496983	1.0
[RightHandThumb2]
1  	-32.29800034	-18.64699936	18.64699936	22.2642746	-23.88599968	-24.28543854	1.0
2  	-32.29800034	-18.64699936	18.64699936	22.25527191	-23.97719193	-24.04008484	1.0
3  	-32.29800034	-18.64699936	18.64699936	22.24661636	-24.06459045	-23.80607986	1.0
4  	-32.29800034	-18.64699936	18.64699936	22.23726273	-24.15957642	-23.54937363	1.0
[RightHandThumb3]
1  	-26.52600098	-15.31399918	15.31399918	-14.47829151	-6.743863583	-11.36568832	1.0
2  	-26.52600098	-15.31399918	15.31399918	-14.46340179	-6.692883015	-11.41682434	1.0
3  	-26.52600098	-15.31399918	15.31399918	-14.45216274	-6.648355484	-11.47355175	1.0
4  	-26.52600098	-15.31399918	15.31399918	-14.43362236	-6.590922356	-11.51909447	1.0
[RightHandThumb4]
1  	-19.54599953	-11.28499985	11.28499985	0	0	0	1.0
2  	-19.54599953	-11.28499985	11.28499985	0	0	0	1.0
3  	-19.54599953	-11.28499985	11.28499985	0	0	0	1.0
4  	-19.54599953	-11.28499985	11.28499985	0	0	0	1.0
[LeftUpLeg]
1  	82.07800293	-67.51699829	-15.99599934	-8.336411476	16.22957611	7.749588013	1.0
2  	82.07800293	-67.51699829	-15.99599934	-8.431717873	16.25158501	7.735697746	1.0
3  	82.07800293	-67.51699829	-15.99599934	-8.53342247	16.27303505	7.720453262	1.0
4  	82.07800293	-67.51699829	-15.99599934	-8.622333527	16.29560471	7.70791769	1.0
[LeftLeg]
1  	0	-443.7049866	2.845999956	12.27480888	1.102391243	4.510670662	1.0
2  	0	-443.7049866	2.845999956	12.50889206	1.156154156	4.523377895	1.0
3  	0	-443.7049866	2.845999956	12.74735546	1.212624311	4.537249565	1.0
4  	0	-443.7049866	2.845999956	12.97705841	1.263679862	4.548792839	1.0
[LeftFoot]
1  	0	-444.2789917	-29.8219986	1.20381403	0.6670112014	-7.098455906	1.0
2  	0	-444.2789917	-29.8219986	1.186922073	0.6601413488	-7.103375435	1.0
3  	0	-444.2789917	-29.8219986	1.168674946	0.6531487107	-7.105457783	1.0
4  	0	-444.2789917	-29.8219986	1.153138161	0.6464016438	-7.113213539	1.0
[LeftToeBase]
1  	0	-87.28699493	107.1060028	-4.928529263	-3.254425792e-06	9.870769873e-07	1.0
2  	0	-87.28699493	107.1060028	-4.93272543	-4.680439815e-06	9.863384776e-07	1.0
3  	0	-87.28699493	107.1060028	-4.937583923	-6.360080079e-06	9.879451e-07	1.0
4  	0	-87.28699493	107.1060028	-4.941117764	-7.532467407e-06	9.848613445e-07	1.0
[RightUpLeg]
1  	-82.07800293	-67.51699829	-15.99599934	0.02203206159	-10.41095543	3.455895662	1.0
2  	-82.07800293	-67.51699829	-15.99599934	-0.1564020813	-10.39135933	3.400577068	1.0
3  	-82.07800293	-67.51699829	-15.99599934	-0.3405652046	-10.37070274	3.345834732	1.0
4  	-82.07800293	-67.51699829	-15.99599934	-0.5132703781	-10.35216713	3.28993988	1.0
[RightLeg]
1  	0	-443.7049866	2.861999989	7.954569817	-9.246213913	-4.547100067	1.0
2  	0	-443.7049866	2.861999989	8.334043503	-9.171717644	-4.547561646	1.0
3  	0	-443.7049866	2.861999989	8.71578598	-9.095674515	-4.547643661	1.0
4  	0	-443.7049866	2.861999989	9.092990875	-9.022724152	-4.548484802	1.0
[RightFoot]
1  	0	-444.2770081	-29.83799934	-3.725753307	-1.430761933	3.295892	1.0
2  	0	-444.2770081	-29.83799934	-3.825362206	-1.411340475	3.295996904	1.0
3  	0	-444.2770081	-29.83799934	-3.928141117	-1.391635895	3.295748711	1.0
4  	0	-444.2770081	-29.83799934	-4.024580002	-1.372497678	3.296206713	1.0
[RightToeBase]
1  	0	-87.28699493	107.1060028	-7.282875538	-1.228416477e-05	2.66282342e-07	1.0
2  	0	-87.28699493	107.1060028	-7.286554337	-5.651149422e-06	-1.867405786e-09	1.0
3  	0	-87.28699493	107.1060028	-7.290184498	1.325388439e-06	-2.627112394e-07	1.0
4  	0	-87.28699493	107.1060028	-7.293911934	7.614880815e-06	-5.381668302e-07	1.0
[EndOfFile]
